<svg width="236" height="281" viewBox="0 0 236 281" fill="none" xmlns="http://www.w3.org/2000/svg">
<path d="M26.6687 20.8743C24.769 25.3995 24.1845 29.1219 24.1115 35.7637C24.1115 47.7335 27.6916 56.2 36.6056 65.1044C44.4235 72.9141 50.3418 75.6876 68.3889 79.9208C87.8241 84.446 92.9387 86.4167 100.245 92.1096C103.606 94.7372 109.013 102.766 110.694 107.656C112.301 112.035 112.959 123.859 111.936 128.384C111.278 131.012 111.351 132.107 112.301 133.858C114.128 137.362 119.973 145.974 120.557 145.974C121.58 145.974 130.056 132.398 130.056 130.793C130.056 129.26 130.348 129.187 137.289 129.187C144.888 129.187 146.203 128.676 147.226 125.538C147.811 123.64 148.833 123.713 149.418 125.684C150.733 129.917 152.998 134.296 153.875 134.296C155.409 134.296 156.067 132.398 157.82 123.129C158.697 118.385 159.574 114.663 159.793 114.882C159.939 115.028 161.108 121.304 162.277 128.822C163.446 136.34 164.615 142.763 164.835 143.128C165.346 144.003 167.1 143.93 167.684 143.055C167.903 142.69 169.072 138.821 170.315 134.515C173.31 123.64 173.018 124.151 174.698 126.924L176.16 129.333L190.773 128.895L205.313 128.457V130.647C205.313 132.252 204.947 132.836 203.998 132.836C203.121 132.836 202.244 134.15 201.075 137.435C195.084 154.149 177.767 166.337 160.085 166.41C156.578 166.41 154.825 166.045 152.925 164.878C151.537 164.002 150.514 163.272 150.66 163.126C150.806 163.053 152.852 163.199 155.263 163.564C160.524 164.294 168.853 163.272 174.406 161.228C185.147 157.214 194.207 148.018 198.664 136.559L200.198 132.836H198.152C196.399 132.836 195.887 133.493 193.695 138.164C190.7 144.368 182.955 152.543 177.11 155.608C163.593 162.834 145.911 160.644 135.024 150.572C131.663 147.361 131.444 147.288 130.421 148.602C128.96 150.572 128.96 150.572 132.394 153.638C135.316 156.338 135.389 156.411 133.271 155.9C132.102 155.608 130.275 154.805 129.252 154.003C127.937 153.054 127.06 152.908 126.549 153.419C126.183 153.784 123.334 154.222 120.338 154.368C115.881 154.514 114.712 154.368 114.347 153.419C113.981 152.47 113.689 152.543 112.301 153.784C111.424 154.66 109.524 155.535 108.136 155.827L105.579 156.338L108.502 154.003C110.109 152.762 111.57 151.521 111.716 151.375C111.863 151.229 111.643 150.28 111.059 149.331L110.182 147.58L106.163 150.791C96.592 158.601 84.3901 161.666 73.065 159.039C58.9635 155.827 46.9808 142.763 44.4235 127.946C42.1585 114.298 48.8074 98.9704 60.4248 91.3068C63.7858 89.1172 63.7858 88.8252 60.4978 88.0224C58.9635 87.6574 57.8675 88.1683 55.018 90.4309C45.6656 97.8026 40.1858 109.627 40.1858 122.472C40.1858 139.843 51.8762 156.119 68.1697 161.593C73.6495 163.418 80.956 164.221 85.8514 163.564C88.2625 163.199 90.3084 163.053 90.4545 163.126C90.6006 163.272 89.5046 164.075 88.0433 164.951C85.6322 166.41 84.6824 166.556 79.0563 166.264C55.8947 164.878 37.2632 145.317 37.2632 122.253C37.2632 110.794 41.8663 99.6273 49.7573 91.7447C54.6526 86.8546 54.7257 86.7816 52.8991 86.1247C50.1226 85.0299 50.1226 85.1029 46.031 89.5551L42.2316 93.7154L43.4737 90.7959C44.1313 89.2631 45.3003 87.2195 46.1771 86.3437C47.5653 84.8109 47.4923 83.2052 45.9579 83.2052C45.5195 83.2052 42.8892 81.8185 40.0396 80.1398C34.1214 76.6364 34.9981 76.0525 29.8836 86.6356C26.0842 94.4452 23.3077 104.08 21.9926 113.422C21.4811 117.144 21.1889 144.66 21.1889 195.313V271.512H50.0495H78.8372L79.0563 236.624C79.2755 202.393 79.3486 201.736 81.0291 197.284C88.4087 177.285 108.794 165.462 128.594 169.622C144.45 172.979 155.775 183.635 160.889 199.984C162.57 205.385 162.57 205.896 162.57 238.449V271.512H191.284H219.999L219.707 191.737C219.487 104.298 219.707 109.554 215.03 95.613C213.204 90.066 207.797 78.3881 206.774 77.7312C206.482 77.5852 203.632 78.899 200.49 80.6507C197.349 82.4754 194.426 84.0081 194.061 84.1541C193.622 84.373 193.915 85.2489 194.791 86.1977C196.399 88.0224 198.006 90.7229 198.006 91.6717C198.006 92.0367 196.399 90.7229 194.499 88.8252C191.357 85.7598 190.773 85.3948 188.654 85.8328C187.339 86.1247 186.316 86.3437 186.316 86.4167C186.316 86.4896 188.508 88.8252 191.284 91.5987C193.988 94.4452 197.276 98.7515 198.591 101.233C201.002 105.904 203.851 115.392 203.851 119.115C203.851 120.21 204.217 121.158 204.582 121.158C205.02 121.158 205.313 121.961 205.313 122.983C205.313 124.662 205.094 124.808 201.513 124.881C199.394 124.881 196.983 125.027 196.18 125.246C195.376 125.392 190.846 125.319 186.17 125.1L177.621 124.589L175.794 120.356C172.945 113.787 171.995 114.517 169.072 125.173C166.661 133.785 166.807 134.004 164.031 116.049C161.62 101.087 161.693 101.306 159.793 101.598C158.405 101.817 157.967 103.058 155.848 113.495C154.533 119.918 153.437 125.319 153.437 125.538C153.363 125.757 152.633 123.932 151.683 121.523C149.345 115.392 147.737 115.247 145.18 121.158L143.207 125.538L136.12 125.392L128.96 125.173L128.741 120.575C128.302 111.232 131.736 102.036 138.239 95.1751C145.399 87.5844 152.852 84.3 172.287 79.9938C189.969 76.1255 197.276 72.7681 205.459 64.5935C213.642 56.419 218.611 42.7704 217.368 31.8954C216.857 27.1512 214.3 18.2468 213.496 18.3198C213.204 18.3198 211.377 20.6554 209.331 23.5748C202.828 32.8442 192.234 39.778 180.763 42.1135L174.845 43.3543L165.785 38.9021C149.053 30.7276 138.312 28.1 120.557 28.1C102.729 28.1 91.9158 30.7276 75.4031 38.9021L66.4161 43.3543L60.5709 42.1865C49.2458 39.8509 37.6285 32.3333 31.7833 23.6478C30.2489 21.3122 28.6415 19.0496 28.4223 18.6847C28.13 18.3198 27.3263 19.3416 26.6687 20.8743ZM44.2043 152.981C50.9263 161.155 62.3245 167.724 73.5765 169.841C78.3988 170.717 80.0793 171.301 79.6409 171.884C78.8372 172.833 73.5765 172.322 67.9505 170.79C59.8402 168.6 48.296 161.082 42.9622 154.587C38.5783 149.185 35.8019 144.149 35.8019 141.522C35.8749 139.186 36.021 139.332 38.6514 144.295C40.1858 147.215 42.67 151.083 44.2043 152.981ZM202.975 148.018C199.541 153.784 191.211 162.031 185.22 165.535C176.671 170.498 163.739 174.001 161.547 171.884C160.743 171.082 161.108 170.863 164.104 170.425C174.991 168.892 184.708 164.586 192.015 157.944C196.618 153.857 203.413 144.441 204.436 141.011C204.947 139.04 204.947 139.04 205.167 141.449C205.313 143.201 204.728 145.098 202.975 148.018Z" fill="#0F3561"/>
<path d="M179.74 88.4603L177.183 89.1902L179.74 90.5039C183.539 92.4746 191.211 100.868 193.257 105.248C195.157 109.481 197.276 116.852 197.276 119.48C197.276 120.794 197.714 121.159 199.102 121.159C200.71 121.159 200.929 120.867 200.929 118.385C200.856 110.284 196.18 100.357 188.8 92.8395C185.95 89.993 183.32 87.5845 182.955 87.6574C182.589 87.6574 181.128 88.0224 179.74 88.4603Z" fill="#0F3561"/>
<path d="M65.1009 91.7447C58.0136 95.394 51.5839 102.911 48.9536 110.575C45.008 122.107 47.4192 135.464 55.1641 144.952C61.0093 152.032 71.6768 156.922 81.3944 156.922C90.2353 156.922 100.099 153.054 105.506 147.507C107.844 145.098 108.063 144.66 107.113 143.419C106.163 142.106 105.944 142.178 102.656 145.098C100.684 146.777 96.9573 149.258 94.3269 150.572C89.87 152.762 89.0662 152.908 81.8328 152.908C74.3802 152.908 73.8687 152.835 68.535 150.134C49.3919 140.719 44.8619 116.852 59.2557 101.16C62.8359 97.2187 70.2885 92.6935 73.1381 92.6935C75.33 92.6935 75.4031 91.4526 73.2111 90.9417C72.1152 90.6498 70.7269 90.2849 70.1424 90.139C69.4848 89.92 67.2198 90.6499 65.1009 91.7447Z" fill="#0F3561"/>
<path d="M167.319 91.1612C165.565 91.6721 165.638 91.7451 168.415 92.694C173.529 94.3727 176.963 96.4162 181.055 100.284C185.658 104.591 188.727 110.211 189.969 116.633C190.773 120.648 191.065 121.159 192.599 121.159C194.572 121.159 194.718 120.648 193.549 115.174C191.576 105.904 186.389 98.241 178.717 93.2778C174.333 90.4314 171.557 89.9204 167.319 91.1612Z" fill="#0F3561"/>
<path d="M74.8916 107.51C68.3888 110.064 64.7356 115.246 64.8087 121.815C64.9548 131.522 71.896 137.872 81.5406 137.069C89.3585 136.413 94.9845 130.063 94.9845 121.888C94.9845 117.144 94.4731 116.195 92.9387 118.312C91.4043 120.574 88.6279 121.377 85.7783 120.428C80.956 118.823 79.5678 113.568 82.9288 109.626C83.8786 108.459 84.5362 107.291 84.244 106.999C83.5133 106.269 77.2297 106.634 74.8916 107.51Z" fill="#0F3561"/>
<path d="M187.193 136.194C185.147 140.354 179.155 146.777 175.064 149.186C168.196 153.2 158.843 154.368 151.172 152.105C146.495 150.718 143.354 148.967 138.604 145.025C135.316 142.325 134.951 142.252 133.855 143.347C132.759 144.441 132.905 144.733 135.463 147.361C138.824 150.791 144.888 154.149 150.806 155.827C156.578 157.506 166.077 156.995 171.922 154.733C180.251 151.594 189.385 142.617 192.015 135.172C192.819 132.909 192.746 132.836 190.773 132.836C189.165 132.836 188.508 133.42 187.193 136.194Z" fill="#0F3561"/>
</svg>
